<?xml version="1.0" encoding="UTF-8"?><svg id="uuid-f410a0a7-af6a-4ec3-99c4-7a99e039c288" xmlns="http://www.w3.org/2000/svg" viewBox="0 0 113.74 60"><defs><style>.uuid-0a388059-9627-4cad-b670-ec1b0c846290{fill:#4ccffc;}.uuid-0139804e-2749-4ba4-a703-c2c14ce1798e{fill:#dcf8ff;}</style></defs><g id="uuid-ffc57c30-7fcf-4dd5-a131-793fa05d7ece"><g><path class="uuid-0a388059-9627-4cad-b670-ec1b0c846290" d="m72.23,55.03c.54.52.81,1.17.81,1.94s-.27,1.42-.81,1.94c-.54.52-1.22.78-2.04.78s-1.5-.26-2.04-.78c-.54-.52-.81-1.17-.81-1.94s.27-1.42.81-1.94c.54-.52,1.22-.78,2.04-.78s1.5.26,2.04.78Zm-4.33-2.97v-18.4h4.65v18.4h-4.65Z"/><g><path class="uuid-0139804e-2749-4ba4-a703-c2c14ce1798e" d="m16.03,16.73c-.59,1.09-1.51,1.96-2.76,2.62-1.25.66-2.83,1-4.73,1h-3.89v8.9H0V6.07h8.54c1.79,0,3.32.31,4.58.93,1.26.62,2.21,1.47,2.84,2.56.63,1.09.95,2.31.95,3.69,0,1.24-.29,2.4-.88,3.49Zm-4.83-1.01c.62-.59.93-1.41.93-2.47,0-2.26-1.26-3.39-3.79-3.39h-3.69v6.74h3.69c1.28,0,2.24-.29,2.86-.88Z"/><path class="uuid-0139804e-2749-4ba4-a703-c2c14ce1798e" d="m39.59,29.25l-3.79-5.71-3.35,5.71h-4.98l6.01-9.23-6.08-9.17h5.25l3.75,5.68,3.39-5.68h4.98l-6.05,9.17,6.11,9.23h-5.25Z"/><path class="uuid-0139804e-2749-4ba4-a703-c2c14ce1798e" d="m64.34,21.44h-13.45c.11,1.33.58,2.37,1.4,3.12.82.75,1.83,1.13,3.02,1.13,1.73,0,2.96-.74,3.69-2.23h5.02c-.53,1.77-1.55,3.23-3.06,4.37-1.51,1.14-3.35,1.71-5.55,1.71-1.77,0-3.36-.39-4.77-1.18-1.41-.79-2.5-1.9-3.29-3.34-.79-1.44-1.18-3.1-1.18-4.98s.39-3.58,1.16-5.02c.77-1.44,1.86-2.55,3.26-3.32,1.4-.77,3-1.16,4.82-1.16s3.32.38,4.7,1.13c1.38.75,2.46,1.82,3.22,3.21.76,1.38,1.15,2.97,1.15,4.77,0,.66-.04,1.26-.13,1.79Zm-4.68-3.12c-.02-1.2-.45-2.15-1.3-2.87-.84-.72-1.87-1.08-3.09-1.08-1.15,0-2.12.35-2.91,1.05-.79.7-1.27,1.67-1.44,2.91h8.74Z"/><path class="uuid-0139804e-2749-4ba4-a703-c2c14ce1798e" d="m72.51,4.67v24.58h-4.65V4.67h4.65Z"/></g><g><path class="uuid-0a388059-9627-4cad-b670-ec1b0c846290" d="m50.77,36.52v3.75h-6.18v19.43h-4.65v-19.43h-6.18v-3.75h17.01Z"/><path class="uuid-0a388059-9627-4cad-b670-ec1b0c846290" d="m61.15,41.86c.96-.55,2.06-.83,3.3-.83v4.88h-1.23c-1.46,0-2.56.34-3.31,1.03-.74.69-1.11,1.88-1.11,3.59v9.17h-4.65v-18.4h4.65v2.86c.6-.97,1.38-1.74,2.34-2.29Z"/><path class="uuid-0a388059-9627-4cad-b670-ec1b0c846290" d="m76.77,45.5c.77-1.43,1.85-2.54,3.22-3.32,1.37-.79,2.94-1.18,4.72-1.18,2.28,0,4.17.57,5.66,1.71,1.49,1.14,2.5,2.74,3.01,4.8h-5.02c-.27-.8-.71-1.42-1.35-1.88-.63-.45-1.41-.68-2.34-.68-1.33,0-2.38.48-3.16,1.44-.78.96-1.16,2.33-1.16,4.1s.39,3.11,1.16,4.07c.77.96,1.83,1.44,3.16,1.44,1.88,0,3.11-.84,3.69-2.52h5.02c-.51,1.99-1.52,3.58-3.02,4.75-1.51,1.17-3.39,1.76-5.65,1.76-1.77,0-3.34-.39-4.72-1.18-1.37-.79-2.45-1.89-3.22-3.32-.78-1.43-1.16-3.09-1.16-5s.39-3.57,1.16-5Z"/><path class="uuid-0a388059-9627-4cad-b670-ec1b0c846290" d="m107.7,59.7l-6.24-7.84v7.84h-4.65v-24.58h4.65v13.98l6.18-7.81h6.05l-8.1,9.23,8.17,9.17h-6.05Z"/></g><g><rect class="uuid-0139804e-2749-4ba4-a703-c2c14ce1798e" x="21.43" y="24.77" width="2.24" height="2.24"/><rect class="uuid-0139804e-2749-4ba4-a703-c2c14ce1798e" x="23.67" y="27.01" width="2.24" height="2.24"/><rect class="uuid-0139804e-2749-4ba4-a703-c2c14ce1798e" x="21.43" y="27.01" width="2.24" height="2.24"/><rect class="uuid-0139804e-2749-4ba4-a703-c2c14ce1798e" x="19.19" y="27.01" width="2.24" height="2.24"/><rect class="uuid-0139804e-2749-4ba4-a703-c2c14ce1798e" x="23.67" y="22.53" width="2.24" height="2.24"/><rect class="uuid-0139804e-2749-4ba4-a703-c2c14ce1798e" x="21.43" y="22.53" width="2.24" height="2.24"/><rect class="uuid-0139804e-2749-4ba4-a703-c2c14ce1798e" x="19.19" y="22.53" width="2.24" height="2.24"/><rect class="uuid-0139804e-2749-4ba4-a703-c2c14ce1798e" x="19.19" y="20.29" width="2.24" height="2.24"/><rect class="uuid-0139804e-2749-4ba4-a703-c2c14ce1798e" x="23.67" y="20.29" width="2.24" height="2.24"/><rect class="uuid-0139804e-2749-4ba4-a703-c2c14ce1798e" x="23.67" y="18.05" width="2.24" height="2.24"/><rect class="uuid-0139804e-2749-4ba4-a703-c2c14ce1798e" x="21.43" y="18.05" width="2.24" height="2.24"/><rect class="uuid-0139804e-2749-4ba4-a703-c2c14ce1798e" x="19.19" y="18.05" width="2.24" height="2.24"/><rect class="uuid-0139804e-2749-4ba4-a703-c2c14ce1798e" x="21.43" y="15.8" width="2.24" height="2.24"/><rect class="uuid-0139804e-2749-4ba4-a703-c2c14ce1798e" x="23.67" y="13.56" width="2.24" height="2.24"/><rect class="uuid-0139804e-2749-4ba4-a703-c2c14ce1798e" x="19.19" y="13.56" width="2.24" height="2.24"/><rect class="uuid-0139804e-2749-4ba4-a703-c2c14ce1798e" x="21.43" y="11.32" width="2.24" height="2.24"/><rect class="uuid-0139804e-2749-4ba4-a703-c2c14ce1798e" x="23.67" y="9.02" width="2.24" height="2.24"/><rect class="uuid-0139804e-2749-4ba4-a703-c2c14ce1798e" x="19.19" y="6.78" width="2.24" height="2.24"/><rect class="uuid-0139804e-2749-4ba4-a703-c2c14ce1798e" x="21.43" y="4.54" width="2.24" height="2.24"/><rect class="uuid-0139804e-2749-4ba4-a703-c2c14ce1798e" x="23.67" width="2.24" height="2.24"/></g></g></g></svg>